<svg xml:space="preserve" viewBox="0 0 112 112" version="1.1" width="112" height="112" xmlns="http://www.w3.org/2000/svg" xmlns:svg="http://www.w3.org/2000/svg"><path fill="#24292f" d="M 56.097656,0 A 56.098,56.098 0 0 0 0,56.097656 56.098,56.098 0 0 0 56.097656,112.19531 56.098,56.098 0 0 0 112.19531,56.097656 56.098,56.098 0 0 0 56.097656,0 Z M 32.412109,26.212891 c 4.587996,0 7.407094,3.0108 7.496094,6.966797 0,3.871996 -2.908942,6.970703 -7.585937,6.970703 h -0.08594 c -4.497995,0 -7.412109,-3.098707 -7.412109,-6.970703 0,-3.955997 3.000895,-6.966797 7.58789,-6.966797 z m 39.523438,18.492187 c 8.821991,0 15.435547,5.765403 15.435547,18.150391 V 85.982422 H 73.962891 V 64.404297 c 0,-5.417995 -1.936021,-9.117188 -6.791016,-9.117188 -3.704996,0 -5.904954,2.490347 -6.876953,4.902344 -0.353,0.861999 -0.445313,2.058579 -0.445313,3.267578 V 85.982422 H 46.439453 c 0,0 0.18,-36.547082 0,-40.330078 h 13.412109 v 5.714844 c 1.781999,-2.741998 4.958992,-6.66211 12.083985,-6.66211 z m -12.083985,6.66211 c -0.027,0.045 -0.06584,0.08981 -0.08984,0.132812 h 0.08984 z M 25.621094,45.652344 H 39.025391 V 85.982422 H 25.621094 Z"/></svg>
