<svg xmlns="http://www.w3.org/2000/svg" width="150" height="150" viewBox="0 0 39.688 39.688" fill="#1b1b1b" aria-label="merb.dev"><circle cx="19.844" cy="19.844" r="19.844" fill="#ffffff" /><g style="font-size:40px;line-height:1.25;white-space:pre;shape-inside:url(#a);fill:#333" transform="translate(-55.49 -71.444) scale(.26458)"><path d="M59.21 82.808q0-2.88-.76-4.08-.72-1.2-2.52-1.2-.56 0-1.16.08-.6.04-1.16.12v16.24h-5.96v-20.32q.76-.2 1.76-.4 1.04-.24 2.16-.4 1.16-.2 2.36-.28 1.2-.12 2.36-.12 2.28 0 3.68.6 1.44.56 2.36 1.36 1.28-.92 2.92-1.44 1.68-.52 3.08-.52 2.52 0 4.12.72 1.64.68 2.6 1.96.96 1.28 1.32 3.04.36 1.76.36 3.92v11.88h-5.96v-11.16q0-2.88-.76-4.08-.72-1.2-2.52-1.2-.48 0-1.36.24-.84.24-1.4.6.28.92.36 1.96.08 1 .08 2.16v11.48h-5.96z" transform="matrix(2.56204 0 0 3.22145 125.999 74.971)" /><circle cx="332.869" cy="373.093" r="5" /></g></svg>
