<svg xmlns:xlink="http://www.w3.org/1999/xlink" width="1280" xmlns="http://www.w3.org/2000/svg" height="321" viewBox="1 4818 1280 321" fill="#47afc2" version="1.1"><path rx="0" ry="0" d="M1.000,5075.870C21.648,5024.240,69.548,4949.331,165.068,5075.870C257.753,5198.653,252.906,4948.437,345.671,5052.895C428.212,5145.841,483.867,5035.141,483.867,5035.141C483.867,5035.141,550.530,4912.364,623.536,4999.851C702.324,5094.268,774.294,4977.715,774.294,4977.715C774.294,4977.715,839.118,4861.533,923.473,4977.715C1010.316,5097.322,1052.165,4884.487,1052.165,4884.487C1052.165,4884.487,1087.752,4746.314,1152.839,4868.348C1220.122,4994.500,1281.000,4960.666,1281.000,4960.666L1281.000,5139.000L1.000,5139.000L1.000,5075.870Z"/></svg>
