<svg xmlns:xlink="http://www.w3.org/1999/xlink" width="1280" xmlns="http://www.w3.org/2000/svg" height="261.347" id="screenshot-634d7854-72aa-80ea-8001-fcc90d2d13fd" viewBox="0 4879 1280 261.347" style="-webkit-print-color-adjust: exact;" fill="none" version="1.1"><g id="shape-634d7854-72aa-80ea-8001-fcc90d2d13fd"><g class="fills" id="fills-634d7854-72aa-80ea-8001-fcc90d2d13fd"><path rx="0" ry="0" d="M0.000,5088.949C20.648,5046.913,68.548,4985.925,164.068,5088.949C256.753,5188.914,251.906,4985.197,344.671,5070.243C427.212,5145.916,482.867,5055.789,482.867,5055.789C482.867,5055.789,549.530,4955.828,622.536,5027.057C701.324,5103.928,773.294,5009.034,773.294,5009.034C773.294,5009.034,838.118,4914.443,922.473,5009.034C1009.316,5106.414,1051.165,4933.131,1051.165,4933.131C1051.165,4933.131,1086.752,4820.636,1151.839,4919.991C1219.122,5022.700,1280.000,4995.154,1280.000,4995.154L1280.000,5140.347L0.000,5140.347L0.000,5088.949Z" style="fill: rgb(27, 27, 27); fill-opacity: 1;"/></g></g></svg>