<?xml version="1.0" encoding="UTF-8" standalone="no"?>
<svg
   viewBox="0 0 226 235.952"
   version="1.1"
   id="svg13"
   width="226"
   height="235.952"
   xmlns:xlink="http://www.w3.org/1999/xlink"
   xmlns="http://www.w3.org/2000/svg"
   xmlns:svg="http://www.w3.org/2000/svg">
  <defs
     id="defs9">
    <style
       id="style2">.a{fill:#ff3e00;}.b{fill:#fff;}.c{fill:#1273ff;}.d{fill:#ffd815;}</style>
    <symbol
       id="a"
       viewBox="0 0 93.224 112">
      <path
         class="a"
         d="M 87.269,14.819 C 76.869,-0.066 56.328,-4.478 41.477,4.984 L 15.4,21.608 A 29.921,29.921 0 0 0 1.876,41.651 31.514,31.514 0 0 0 4.984,61.882 30.006,30.006 0 0 0 0.507,73.065 31.892,31.892 0 0 0 5.955,97.181 c 10.4,14.887 30.942,19.3 45.791,9.835 L 77.829,90.392 A 29.915,29.915 0 0 0 91.347,70.349 31.522,31.522 0 0 0 88.247,50.117 30.019,30.019 0 0 0 92.721,38.935 31.878,31.878 0 0 0 87.274,14.819"
         id="path4" />
      <path
         class="b"
         d="m 38.929,98.582 a 20.72,20.72 0 0 1 -22.237,-8.243 19.176,19.176 0 0 1 -3.276,-14.5 18.143,18.143 0 0 1 0.623,-2.435 l 0.491,-1.5 1.337,0.981 a 33.633,33.633 0 0 0 10.2,5.1 l 0.969,0.294 -0.089,0.968 a 5.844,5.844 0 0 0 1.053,3.875 6.24,6.24 0 0 0 6.7,2.485 5.748,5.748 0 0 0 1.6,-0.7 L 62.382,68.281 a 5.43,5.43 0 0 0 2.451,-3.631 5.794,5.794 0 0 0 -0.988,-4.371 6.244,6.244 0 0 0 -6.7,-2.487 5.755,5.755 0 0 0 -1.6,0.7 l -9.953,6.345 a 19.06,19.06 0 0 1 -5.3,2.326 A 20.719,20.719 0 0 1 18.055,58.92 19.171,19.171 0 0 1 14.778,44.42 17.992,17.992 0 0 1 22.915,32.37 L 49,15.747 a 19.03,19.03 0 0 1 5.3,-2.329 20.72,20.72 0 0 1 22.237,8.243 19.176,19.176 0 0 1 3.277,14.5 18.453,18.453 0 0 1 -0.624,2.435 l -0.491,1.5 -1.336,-0.979 a 33.616,33.616 0 0 0 -10.2,-5.1 l -0.97,-0.294 0.09,-0.968 a 5.859,5.859 0 0 0 -1.052,-3.878 6.241,6.241 0 0 0 -6.7,-2.485 5.748,5.748 0 0 0 -1.6,0.7 L 30.842,43.719 a 5.421,5.421 0 0 0 -2.449,3.63 5.79,5.79 0 0 0 0.986,4.372 6.245,6.245 0 0 0 6.7,2.487 5.773,5.773 0 0 0 1.6,-0.7 l 9.952,-6.342 a 18.978,18.978 0 0 1 5.3,-2.328 20.718,20.718 0 0 1 22.236,8.243 19.171,19.171 0 0 1 3.277,14.5 18,18 0 0 1 -8.13,12.054 L 44.229,96.253 a 19.017,19.017 0 0 1 -5.3,2.329"
         id="path6" />
    </symbol>
  </defs>
  <use
     width="93.223999"
     height="112"
     transform="matrix(1.584,0,0,1.584,34.228,29.267)"
     xlink:href="#a"
     id="use11" />
</svg>
