<svg xmlns="http://www.w3.org/2000/svg" width="172.64" height="31.6" viewBox="0 0 45.678 8.361" fill="#1b1b1b" aria-label="merb.dev"><path transform="matrix(.26458 0 0 .26458 -37.94 -96.14)" d="M154.954 383.243q0-2.88-.76-4.08-.72-1.2-2.52-1.2-.56 0-1.16.08-.6.04-1.16.12v16.24h-5.96v-20.32q.76-.2 1.76-.4 1.04-.24 2.16-.4 1.16-.2 2.36-.28 1.2-.12 2.36-.12 2.28 0 3.68.6 1.44.56 2.36 1.36 1.28-.92 2.92-1.44 1.68-.52 3.08-.52 2.52 0 4.12.72 1.64.68 2.6 1.96.96 1.28 1.32 3.04.36 1.76.36 3.92v11.88h-5.96v-11.16q0-2.88-.76-4.08-.72-1.2-2.52-1.2-.48 0-1.36.24-.84.24-1.4.6.28.92.36 1.96.08 1 .08 2.16v11.48h-5.96zM176.874 384.043q0-2.8.84-4.88.88-2.12 2.28-3.52t3.2-2.12q1.84-.72 3.76-.72 4.48 0 7.08 2.76 2.6 2.72 2.6 8.04 0 .52-.04 1.16-.04.6-.08 1.08h-13.52q.2 1.84 1.72 2.92 1.52 1.08 4.08 1.08 1.64 0 3.2-.28 1.6-.32 2.6-.76l.8 4.84q-.48.24-1.28.48t-1.8.4q-.96.2-2.08.32t-2.24.12q-2.84 0-4.96-.84-2.08-.84-3.48-2.28-1.36-1.48-2.04-3.48-.64-2-.64-4.32zm14-2.28q-.04-.76-.28-1.48-.2-.72-.68-1.28-.44-.56-1.16-.92-.68-.36-1.72-.36-1 0-1.72.36-.72.32-1.2.88t-.76 1.32q-.24.72-.36 1.48zM213.914 378.643q-.8-.2-1.88-.4-1.08-.24-2.32-.24-.56 0-1.36.12-.76.08-1.16.2v16.08h-5.96v-19.92q1.6-.56 3.76-1.04 2.2-.52 4.88-.52.48 0 1.16.08.68.04 1.36.16.68.08 1.36.24.68.12 1.16.32zM231.594 383.723q0-5.76-4.24-5.76-.92 0-1.84.24-.88.24-1.44.6v10.84q.44.08 1.12.16.68.04 1.48.04 2.44 0 3.68-1.68 1.24-1.68 1.24-4.44zm6.08.16q0 2.52-.76 4.56-.72 2.04-2.12 3.48-1.4 1.44-3.44 2.24-2.04.76-4.64.76-1.08 0-2.28-.12-1.16-.08-2.32-.24-1.12-.16-2.16-.36-1.04-.24-1.84-.48v-29.4l5.96-.96v10.48q1-.44 2.08-.68 1.08-.24 2.32-.24 2.24 0 3.96.8 1.72.76 2.88 2.2 1.16 1.44 1.76 3.48.6 2 .6 4.48zM246.914 391.243q0 1.8-1.16 2.76-1.12.92-2.56.92t-2.6-.92q-1.12-.96-1.12-2.76 0-1.8 1.12-2.72 1.16-.96 2.6-.96 1.44 0 2.56.96 1.16.92 1.16 2.72zM254.793 383.723q0 2.76 1.24 4.44 1.24 1.68 3.68 1.68.8 0 1.48-.04.68-.08 1.12-.16v-10.84q-.56-.36-1.48-.6-.88-.24-1.8-.24-4.24 0-4.24 5.76zm13.48 10q-.8.24-1.84.48-1.04.2-2.2.36-1.12.16-2.32.24-1.16.12-2.24.12-2.6 0-4.64-.76-2.04-.76-3.44-2.16-1.4-1.44-2.16-3.44-.72-2.04-.72-4.56 0-2.56.64-4.6.64-2.08 1.84-3.52 1.2-1.44 2.92-2.2 1.76-.76 4-.76 1.24 0 2.2.24 1 .24 2 .68v-9.52l5.96-.96zM272.873 384.043q0-2.8.84-4.88.88-2.12 2.28-3.52t3.2-2.12q1.84-.72 3.76-.72 4.48 0 7.08 2.76 2.6 2.72 2.6 8.04 0 .52-.04 1.16-.04.6-.08 1.08h-13.52q.2 1.84 1.72 2.92 1.52 1.08 4.08 1.08 1.64 0 3.2-.28 1.6-.32 2.6-.76l.8 4.84q-.48.24-1.28.48t-1.8.4q-.96.2-2.08.32t-2.24.12q-2.84 0-4.96-.84-2.08-.84-3.48-2.28-1.36-1.48-2.04-3.48-.64-2-.64-4.32zm14-2.28q-.04-.76-.28-1.48-.2-.72-.68-1.28-.44-.56-1.16-.92-.68-.36-1.72-.36-1 0-1.72.36-.72.32-1.2.88t-.76 1.32q-.24.72-.36 1.48zM302.953 394.403q-2.04-4-4.16-9.36-2.08-5.36-3.96-11.68h6.32q.4 1.56.92 3.4.56 1.8 1.12 3.68.6 1.84 1.16 3.6.6 1.76 1.16 3.2.52-1.44 1.12-3.2.6-1.76 1.16-3.6.6-1.88 1.12-3.68.56-1.84.96-3.4h6.16q-1.88 6.32-4 11.68-2.08 5.36-4.12 9.36z" /></svg>
