<svg xmlns="http://www.w3.org/2000/svg" width="94.298" height="66.262" viewBox="0 0 24.95 17.532" fill="#ffffff" aria-label="merb.dev"><path transform="matrix(.26458 0 0 .26458 -63.187 -82.897)" d="M250.376 333.192c1.493-3.581-4.203-7.481-5.6-4.158v15.318h-5.96v-20.32c4.763-.974 10.46-2.524 14.68.76 4.166-3.115 12.098-2.83 13.823 2.91 1.036 4.892.401 9.943.577 14.912.639 2.062-1.016 1.832-2.535 1.738-1.106-.343-3.738.84-3.425-.922-.119-4.392.282-8.825-.296-13.182-.838-3.956-7.586-2.508-5.324 1.504.045 4.2.008 8.4.02 12.6h-5.96v-11.16zM272.296 333.992c-.425-5.685 4.16-11.462 10.08-11.24 4.796-.353 9.23 3.492 9.518 8.302.35 2.4.817 5.725-2.493 4.738h-10.985c.95 5.03 7.4 4.396 11.063 3.172 1.2-.111.727 2.733 1.214 3.881-.936 2.444-6.072 1.84-8.652 2.014-4.98-.072-9.468-4.122-9.655-9.172a15.63 15.63 0 0 1-.09-1.695zm14-2.28c.502-5.62-8.648-4.793-7.65 0h7.65zM309.336 328.592c-2.08-.33-7.473-2.098-6.72 1.524v14.236h-5.96v-19.92c4.363-1.519 9.202-2.187 13.68-.76l-1 4.92zM327.016 333.672c1.01-4.352-4.408-7.655-7.52-4.69v10.61c3.637 1.287 7.775-1.2 7.5-5.247zm6.08.16c.302 5.076-3.236 10.295-8.5 10.85-3.694.455-7.482-.047-11.06-1.01v-29.4l5.96-.96v10.48c4.535-2.195 10.996-.531 12.665 4.577.678 1.735.938 3.608.935 5.463zM253.242 375.874c.08 6.42-10.613 3.197-6.81-2.205 1.974-2.75 7.057-1.383 6.81 2.205zM261.122 368.354c-.525 3.944 3.144 7.27 7.02 6 1.085-.627.226-2.91.5-4.229v-6.69c-3.823-2.53-8.221.533-7.52 4.92zm13.48 10c-5.289 1.256-11.784 2.454-16.32-1.38-4.252-4.078-4.16-11.37-1.051-16.09 2.532-3.511 7.655-4.15 11.411-2.41v-9.52l5.96-.96v30.36zM279.202 368.674c-.426-5.685 4.16-11.462 10.08-11.24 4.796-.352 9.23 3.492 9.518 8.303.35 2.4.817 5.724-2.493 4.737h-10.985c.949 5.03 7.4 4.396 11.063 3.173 1.2-.112.727 2.732 1.214 3.88-.937 2.444-6.073 1.84-8.652 2.015-4.98-.073-9.468-4.122-9.655-9.173a15.63 15.63 0 0 1-.09-1.695zm14-2.28c.502-5.619-8.648-4.793-7.65 0h7.65zM309.282 379.034c-3.398-6.722-5.977-13.828-8.12-21.04h6.32c1.243 4.688 2.67 9.334 4.36 13.88 1.646-4.563 3.085-9.2 4.36-13.88h6.16c-2.161 7.205-4.755 14.305-8.12 21.04h-4.96z"/></svg>
